<?xml version="1.0" encoding="UTF-8"?>
<!DOCTYPE svg PUBLIC "-//W3C//DTD SVG 1.1//EN" "http://www.w3.org/Graphics/SVG/1.1/DTD/svg11.dtd">
<!-- Creator: CorelDRAW X5 -->
<svg xmlns="http://www.w3.org/2000/svg" xml:space="preserve" width="11.4788in" height="15.4749in" style="shape-rendering:geometricPrecision; text-rendering:geometricPrecision; image-rendering:optimizeQuality; fill-rule:evenodd; clip-rule:evenodd"
viewBox="0 0 12601 16987"
 xmlns:xlink="http://www.w3.org/1999/xlink">
 <defs>
  <style type="text/css">
   <![CDATA[
    .fil2 {fill:#A32632}
    .fil1 {fill:#DC3545}
    .fil0 {fill:#F07D89}
   ]]>
  </style>
 </defs>
 <g id="Layer_x0020_1">
  <metadata id="CorelCorpID_0Corel-Layer"/>
  <g id="_199177376">
   <path class="fil0" d="M12601 6300c0,3480 -2821,6300 -6300,6300 -3480,0 -6300,-2821 -6300,-6300 0,-3480 2821,-6300 6300,-6300 3480,0 6300,2821 6300,6300z"/>
   <polygon class="fil1" points="9646,12308 3794,12308 2125,16555 2499,16571 4079,13149 5441,13149 5637,16987 5950,16979 6198,13149 9352,13149 10932,16571 11306,16555 "/>
   <polygon class="fil1" points="7065,15852 7420,15845 6893,13149 6367,13149 "/>
   <path class="fil1" d="M1988 4719c-432,-22 -766,373 -680,796 55,268 117,571 185,901 649,3144 892,4172 1633,5275 88,130 172,247 250,349 164,215 418,344 689,346 1858,19 3716,38 5574,57 253,3 489,-127 623,-341 155,-248 318,-583 409,-1000 105,-483 78,-916 14,-1256 -69,-363 -399,-616 -768,-597 -239,12 -495,16 -765,7 -219,-7 -428,-21 -625,-40 -383,-38 -695,-322 -768,-699 -44,-227 -66,-428 -77,-600 -44,-705 100,-1023 16,-1650 -26,-194 -67,-373 -117,-536 -116,-377 -452,-642 -845,-669 -16,-1 -33,-2 -50,-3 -638,-39 -1024,30 -1361,99 -343,70 -634,140 -1089,97 -802,-76 -835,-383 -1878,-506 -129,-15 -253,-25 -371,-31z"/>
   <path class="fil2" d="M9647 12444c-2,0 -5,0 -8,0 -1635,-17 -3270,-34 -4905,-50 -402,-21 -733,-49 -940,-85 -130,-23 -261,-104 -389,-233 -10,-11 -19,-23 -28,-35 -60,-79 -124,-167 -191,-263 -20,-28 -39,-57 -59,-87 -71,-105 -137,-210 -200,-316 -343,-657 -662,-1598 -929,-2619 -147,-626 -307,-1386 -504,-2340l0 0c-38,-221 -80,-404 -115,-561 -23,-111 -45,-218 -66,-320 -16,-101 -21,-187 -8,-265 3,-19 7,-37 12,-56 1,-3 2,-7 3,-10 148,-482 658,-485 669,-485 0,0 0,0 0,0 0,0 -310,912 478,3334 82,253 184,514 387,686 261,223 626,247 975,247 40,0 80,0 119,-1 23,0 46,0 69,0 364,0 755,33 1010,287 202,201 270,496 388,755 344,756 1142,1227 1956,1392 321,65 647,89 974,89 502,0 1008,-58 1508,-116 0,0 282,-101 490,-101 146,0 256,49 211,217 0,1 -1,2 -1,3 -85,233 -189,430 -290,591 -33,52 -72,100 -116,141 -96,86 -192,135 -274,164 -56,18 -115,30 -175,34 -17,1 -34,2 -51,2z"/>
  </g>
 </g>
</svg>
