<?xml version="1.0" encoding="UTF-8"?>
<!DOCTYPE svg PUBLIC "-//W3C//DTD SVG 1.1//EN" "http://www.w3.org/Graphics/SVG/1.1/DTD/svg11.dtd">
<!-- Creator: CorelDRAW X5 -->
<svg xmlns="http://www.w3.org/2000/svg" xml:space="preserve" width="16.8204in" height="20.0555in" style="shape-rendering:geometricPrecision; text-rendering:geometricPrecision; image-rendering:optimizeQuality; fill-rule:evenodd; clip-rule:evenodd"
viewBox="0 0 7344 8756"
 xmlns:xlink="http://www.w3.org/1999/xlink">
 <defs>
  <style type="text/css">
   <![CDATA[
    .fil1 {fill:#A32632}
    .fil0 {fill:#DC3545}
   ]]>
  </style>
 </defs>
 <g id="Layer_x0020_1">
  <metadata id="CorelCorpID_0Corel-Layer"/>
  <g id="_192327440">
   <polygon class="fil0" points="6126,5417 1834,5417 609,8447 883,8459 2043,6017 3042,6017 3186,8756 3415,8750 3597,6017 5910,6017 7069,8459 7344,8447 "/>
   <polygon class="fil0" points="4233,7946 4493,7941 4107,6017 3720,6017 "/>
   <path class="fil0" d="M509 1c-317,-16 -562,266 -499,568 40,191 86,407 136,643 476,2244 654,2978 1198,3765 64,93 127,176 184,249 120,154 306,245 505,247 1363,14 2726,27 4089,41 186,2 359,-90 457,-244 114,-177 233,-416 300,-713 77,-345 58,-654 10,-896 -51,-259 -293,-439 -563,-426 -176,9 -363,11 -561,5 -161,-5 -314,-15 -459,-29 -281,-27 -510,-229 -563,-499 -32,-162 -48,-306 -56,-428 -32,-503 73,-730 12,-1177 -19,-139 -49,-267 -86,-383 -85,-269 -331,-458 -620,-477 -12,-1 -24,-2 -37,-2 -468,-27 -751,22 -998,71 -251,50 -465,100 -799,69 -588,-54 -613,-273 -1378,-361 -95,-11 -186,-18 -272,-22z"/>
   <path class="fil1" d="M6126 5514c-2,0 -4,0 -6,0 -1199,-12 -2399,-24 -3598,-36 -295,-15 -537,-35 -689,-61 -96,-17 -191,-74 -286,-166 -7,-8 -14,-17 -21,-25 -44,-56 -91,-119 -140,-187 -14,-20 -29,-41 -43,-62 -52,-75 -101,-150 -147,-226 -251,-469 -485,-1140 -682,-1869 -108,-447 -225,-989 -370,-1670l0 0c-28,-157 -59,-289 -85,-400 -17,-80 -33,-156 -48,-228 -11,-72 -15,-134 -6,-189 2,-13 5,-27 9,-40 1,-2 1,-5 2,-7 108,-344 483,-346 491,-346 0,0 0,0 0,0 0,0 -227,651 351,2379 60,180 135,367 284,490 191,159 459,177 715,177 29,0 59,0 88,-1 17,0 34,0 51,0 267,0 554,24 741,205 148,144 198,354 285,539 252,540 837,876 1435,993 236,46 474,64 714,64 368,0 740,-41 1106,-83 0,0 206,-72 360,-72 107,0 188,35 155,155 0,1 0,1 -1,2 -63,166 -139,307 -213,422 -24,37 -53,71 -85,101 -70,61 -141,96 -201,117 -41,13 -84,22 -129,25 -12,1 -25,1 -38,1z"/>
  </g>
 </g>
</svg>
